/* XPM */
static char *ocean0_2[] = {
/* columns rows colors chars-per-pixel */
"94 94 4 1 ",
"  c #081229",
". c #1D1844",
"X c #430F5F",
"o c #731B76",
/* pixels */
"                                                                                              ",
"                                                                                              ",
"                                                                                              ",
"                                                                                              ",
"                                                                                              ",
"                                                                                              ",
"                                                                                              ",
"                                                                                              ",
"                                                                                              ",
"                                                                                              ",
"                                                                                              ",
"                                                                                              ",
"                                                                                              ",
"                                                                                              ",
"                                                                                              ",
"                                                                                              ",
"                                                                                              ",
"                                                                                              ",
"                                                                                              ",
"                                                                                              ",
"                                                                                              ",
"                                                                                              ",
"                                                                                              ",
"                                                                                              ",
"                                                                                              ",
"                                                                                              ",
"                                                                                              ",
"                                                                                              ",
"                                                                                              ",
"                                                                                              ",
"                                                                                              ",
"                                                                                              ",
"                                                                                              ",
"                                                                                              ",
"                                                                                              ",
"                                                                                              ",
"                                                                                              ",
"                                                                                  XXXXXXXXX   ",
"                                                                                  XXXXXXXXX   ",
"  XXXXXXXXX                                                                       XXXXXXXXX   ",
"XXXXXXXXXXXXX                                                                  XXXXXXXXXXXXXXX",
"XXXXXXXXXXXXX                                                                  XXXXXXXXXXXXXXX",
"XXXXXXXXXXXXX                                                                  XXXXXXXXXXXXXXX",
"XXXXXXXXXXXXXXXX                                                            XXXXXXoooooooooXXX",
"XXXXXXXXXXXXXXXX                                                            XXXXXXoooooooooXXX",
"XXXXXXXXXXXXXXXX                                                            XXXXXXoooooooooXXX",
"XXXXXXXXXXXXXXXXXXX                                                         XXXooooooooooooXXX",
"XXXXXXXXXXXXXXXXXXX                                                         XXXooooooooooooXXX",
"XXXXXXXXXXXXXXXXXXX                                                         XXXooooooooooooXXX",
"XXXXXXXXXXXXXXXXXXXXXX                                                   XXXXXXooooooooooooXXX",
"XXXXXXXXXXXXXXXXXXXXXX                                                   XXXXXXooooooooooooXXX",
"XXXXXXXXXXXXXXXXXXXXXX                                                   XXXXXXooooooooooooXXX",
"XXXXXXXXXXXXXXXXXXXXXXXXX                           XXXXXXXXXXXX         XXXXXXooooooooooooXXX",
"XXXXXXXXXXXXXXXXXXXXXXXXX                           XXXXXXXXXXXX         XXXXXXooooooooooooXXX",
"XXXXXXXXXXXXXXXXXXXXXXXXX                           XXXXXXXXXXXX         XXXXXXooooooooooooXXX",
"XXXXXXXXXXXXXXXXXXXXXX                           XXXXXXXXXXXXXXXXXXXXXooooooooooooooooooXXXXXX",
"XXXXXXXXXXXXXXXXXXXXXX                           XXXXXXXXXXXXXXXXXXXXXooooooooooooooooooXXXXXX",
"XXXXXXXXXXXXXXXXXXXXXX                           XXXXXXXXXXXXXXXXXXXXXooooooooooooooooooXXXXXX",
"XXXXXXXXXXXXXXXXXXXXXX                        XXXXXXXXXXXXXXXXXXXXXoooooooooooooooooooooXXXXXX",
"XXXXXXXXXXXXXXXXXXXXXX                        XXXXXXXXXXXXXXXXXXXXXoooooooooooooooooooooXXXXXX",
"XXXXXXXXXXXXXXXXXXXXXX                        XXXXXXXXXXXXXXXXXXXXXoooooooooooooooooooooXXXXXX",
"XXXXXXXXXX......XXXXXX                     XXXXXXXXXXXXXXXXXXXXXoooooooooooooooXXXXXXXXXXXXXXX",
"XXXXXXXXXX......XXXXXX                     XXXXXXXXXXXXXXXXXXXXXoooooooooooooooXXXXXXXXXXXXXXX",
"X.....XXXX......XXXXXX                     XXXXXXXXXXXXXXXXXXXXXoooooooooooooooXXXXXXXXXXXXXXX",
"   ................XXXXXX                  XXXXXXXXXXXXXXXXXXoooooooooooooooooooooXXXXXXXXX   ",
"   ................XXXXXX                  XXXXXXXXXXXXXXXXXXoooooooooooooooooooooXXXXXXXXX   ",
"    ...............XXXXXX                  XXXXXXXXXXXXXXXXXXoooooooooooooooooooooXXXXXXXX    ",
"       ............XXXXXXXXX               XXXXXXXXXXXXXXXXXXoooooooooooooooooooooXXX         ",
"       ............XXXXXXXXX               XXXXXXXXXXXXXXXXXXoooooooooooooooooooooXXX         ",
"       ............XXXXXXXXX               XXXXXXXXXXXXXXXXXXoooooooooooooooooooooXXX         ",
"        ........XXXXXXXXXXXXXXXXXXXXXXXXXXXXXXXXXXXXXXXXXXXXXooooooooooooooooooooo            ",
"        ........XXXXXXXXXXXXXXXXXXXXXXXXXXXXXXXXXXXXXXXXXXXXXooooooooooooooooooooo            ",
"           .....XXXXXXXXXXXXXXXXXXXXXXXXXXXXXXXXXXXXXXXXXXXXXooooooooooooooooooooo            ",
"           ..XXXXXXXXXXXXXXXXXXXXXXXXXXXXXXXXXXXXXXXXXXXXXXXXXXXoooooooooXXXooooooXXXXXX      ",
"           ..XXXXXXXXXXXXXXXXXXXXXXXXXXXXXXXXXXXXXXXXXXXXXXXXXXXoooooooooXXXooooooXXXXXX      ",
"        .....XXXXXXXXXXXXXXXXXXXXXXXXXXXXXXXXXXXXXXXXXXXXXXXXXXXoooooooooXXXooooooXXXXXX      ",
"XXX     ..XXXXXXXXXXXXXXXXXXXXXXXXXXXXXXXXXXXXXXXXXXXXXXXXXXXXXXooooooXXXXXXooooooooooooooo   ",
"XXXXXXXX..XXXXXXXXXXXXXXXXXXXXXXXXXXXXXXXXXXXXXXXXXXXXXXXXXXXXXXooooooXXXXXXooooooooooooooo   ",
"XXXXXXXX..XXXXXXXXXXXXXXXXXXXXXXXXXXXXXXXXXXXXXXXXXXXXXXXXXXXXXXooooooXXXXXXooooooooooooooo   ",
"XXXXXXXXXXXXXXXXXXXXXXXXXXXXXXXXXXXXXXXXXXXXXXXXXXXX......XXXXXXXXXXXXXXXXXXoooooooooooooooXXX",
"XXXXXXXXXXXXXXXXXXXXXXXXXXXXXXXXXXXXXXXXXXXXXXXXXXXX......XXXXXXXXXXXXXXXXXXoooooooooooooooXXX",
"XXXXXXXXXXXXXXXXXXXXXXXXXXXXXXXXXXXXXXXXXXXXXXXXXXXX......XXXXXXXXXXXXXXXXXXoooooooooooooooXXX",
"XXXXXXXXXXXXXXXXXXXXXXXXXXXXXXXXXXXXXXXXXXXXXXXXX......XXXXXXXXXXXXXXXXXXoooooooooooooooXXXXXX",
"XXXXXXXXXXXXXXXXXXXXXXXXXXXXXXXXXXXXXXXXXXXXXXXXX......XXXXXXXXXXXXXXXXXXoooooooooooooooXXXXXX",
"XXXXXXXXXXXXXXXXXXXXXXXXXXXXXXXXXXXXXXXXXXXXXXXXX......XXXXXXXXXXXXXXXXXXoooooooooooooooXXXXXX",
"XXXXXXXXXXXXXXXXXXXXXX.........XXXXXXXXXXXXXXX......XXXXXXXXXXXXXXXXXXooooooooooooooooooXXXXXX",
"XXXXXXXXXXXXXXXXXXXXXX.........XXXXXXXXXXXXXXX......XXXXXXXXXXXXXXXXXXooooooooooooooooooXXXXXX",
"XXXXXXXXXXXXXXXXXXXXXX.........XXXXXXXXXXXXXXX......XXXXXXXXXXXXXXXXXXooooooooooooooooooXXXXXX",
"XXXXXXXXXXXXX.....................XXXXXXXXX.........XXXXXXXXXXXXXXXXXXooooooooooooooooooXXXXXX",
"XXXXXXXXXXXXX.....................XXXXXXXXX.........XXXXXXXXXXXXXXXXXXooooooooooooooooooXXXXXX",
"XXXXXXXXXXXXX.....................XXXXXXXXX.........XXXXXXXXXXXXXXXXXXooooooooooooooooooXXXXXX",
"XXXX..............................XXXXXX...............XXXXXXXXXXXXXXXXXXXXXooooooXXXXXXXXXXXX",
"XXXX..............................XXXXXX...............XXXXXXXXXXXXXXXXXXXXXooooooXXXXXXXXXXXX",
"XXXX..............................XXXXXX...............XXXXXXXXXXXXXXXXXXXXXooooooXXXXXXXXXXXX"
};
