/* XPM */
static char *ocean0_2[] = {
/* columns rows colors chars-per-pixel */
"94 94 4 1 ",
"  c #081229",
". c #1D1844",
"X c #430F5F",
"o c #731B76",
/* pixels */
"                                                                                              ",
"                                                                                              ",
"                                                                                              ",
"                                                                                              ",
"                                                                                              ",
"                                                                                              ",
"                                                                                              ",
"                                                                                              ",
"                                                                                              ",
"                                                                                              ",
"                                                                                              ",
"                                                                                              ",
"                                                                                              ",
"                                                                                              ",
"                                                                                              ",
"                                                                                              ",
"                                                                                              ",
"                                                                                              ",
"                                                                                              ",
"                                                                                              ",
"                                                                                              ",
"                                                                                              ",
"                                                                                              ",
"                                                                                              ",
"                                                                                              ",
"                                                                                              ",
"                                                                                              ",
"                                                                                              ",
"                                                                                              ",
"                                                                                              ",
"                                                                                              ",
"                                                                                              ",
"                                                                                              ",
"                                                                                              ",
"                                                                                              ",
"                                                                                              ",
"                                                                                              ",
"                                                                                  XXXXXXXXX   ",
"                                                                                  XXXXXXXXX   ",
"                                                                                  XXXXXXXXX   ",
"    XXXXXXXXX                                                                  XXXXXXXXXXXXXXX",
"    XXXXXXXXX                                                                  XXXXXXXXXXXXXXX",
"    XXXXXXXXX                                                                  XXXXXXXXXXXXXXX",
" XXXXXXXXXXXXXXX                                                            XXXXXXoooooooooXXX",
" XXXXXXXXXXXXXXX                                                            XXXXXXoooooooooXXX",
" XXXXXXXXXXXXXXX                                                            XXXXXXoooooooooXXX",
"XXXXXXXXXXXXXXXXXXX                                                         XXXooooooooooooXXX",
"XXXXXXXXXXXXXXXXXXX                                                         XXXooooooooooooXXX",
"XXXXXXXXXXXXXXXXXXX                                                         XXXooooooooooooXXX",
"XXXXXXXXXXXXXXXXXXXXXX                                                   XXXXXXooooooooooooXXX",
"XXXXXXXXXXXXXXXXXXXXXX                                                   XXXXXXooooooooooooXXX",
"XXXXXXXXXXXXXXXXXXXXXX                                                   XXXXXXooooooooooooXXX",
"XXXXXXXXXXXXXXXXXXXXXXXXX                           XXXXXXXXXXXX         XXXXXXooooooooooooXXX",
"XXXXXXXXXXXXXXXXXXXXXXXXX                           XXXXXXXXXXXX         XXXXXXooooooooooooXXX",
"XXXXXXXXXXXXXXXXXXXXXXXXX                           XXXXXXXXXXXX         XXXXXXooooooooooooXXX",
"XXXXXXXXXXXXXXXXXXXXXX                           XXXXXXXXXXXXXXXXXXXXXooooooooooooooooooXXXXXX",
"XXXXXXXXXXXXXXXXXXXXXX                           XXXXXXXXXXXXXXXXXXXXXooooooooooooooooooXXXXXX",
"XXXXXXXXXXXXXXXXXXXXXX                           XXXXXXXXXXXXXXXXXXXXXooooooooooooooooooXXXXXX",
".XXXXXXXXXXXXXXXXXXXXX                        XXXXXXXXXXXXXXXXXXXXXoooooooooooooooooooooXXXXXX",
".XXXXXXXXXXXXXXXXXXXXX                        XXXXXXXXXXXXXXXXXXXXXoooooooooooooooooooooXXXXXX",
".XXXXXXXXXXXXXXXXXXXXX                        XXXXXXXXXXXXXXXXXXXXXoooooooooooooooooooooXXXXXX",
"....XXXXXX......XXX...                     XXXXXXXXXXXXXXXXXXXXXoooooooooooooooXXXXXXXXXXXXXXX",
"....XXXXXX......XXX...                     XXXXXXXXXXXXXXXXXXXXXoooooooooooooooXXXXXXXXXXXXXXX",
"....XXXXXX......XXX...                     XXXXXXXXXXXXXXXXXXXXXoooooooooooooooXXXXXXXXXXXXXXX",
"...................XXXXXX                  XXXXXXXXXXXXXXXXXXoooooooooooooooooooooXXXXXXXXX   ",
"...................XXXXXX                  XXXXXXXXXXXXXXXXXXoooooooooooooooooooooXXXXXXXXX   ",
"...................XXXXXX                  XXXXXXXXXXXXXXXXXXoooooooooooooooooooooXXXXXXXXX   ",
"...................XXXXXXXXX               XXXXXXXXXXXXXXXXXXoooooooooooooooooooooXXX         ",
"...................XXXXXXXXX               XXXXXXXXXXXXXXXXXXoooooooooooooooooooooXXX         ",
"...................XXXXXXXXX               XXXXXXXXXXXXXXXXXXoooooooooooooooooooooXXX         ",
"................XXXXXXXXXXXXXXXXXXXXXXXXXXXXXXXXXXXXXXXXXXXXXooooooooooooooooooooo            ",
"................XXXXXXXXXXXXXXXXXXXXXXXXXXXXXXXXXXXXXXXXXXXXXooooooooooooooooooooo            ",
"................XXXXXXXXXXXXXXXXXXXXXXXXXXXXXXXXXXXXXXXXXXXXXooooooooooooooooooooo            ",
".............XXXXXXXXXXXXXXXXXXXXXXXXXXXXXXXXXXXXXXXXXXXXXXXXXXXoooooooooXXXooooooXXXXXX      ",
".............XXXXXXXXXXXXXXXXXXXXXXXXXXXXXXXXXXXXXXXXXXXXXXXXXXXoooooooooXXXooooooXXXXXX      ",
".............XXXXXXXXXXXXXXXXXXXXXXXXXXXXXXXXXXXXXXXXXXXXXXXXXXXoooooooooXXXooooooXXXXXX      ",
"..........XXXXXXXXXXXXXXXXXXXXXXXXXXXXXXXXXXXXXXXXXXXXXXXXXXXXXXooooooXXXXXXooooooooooooooo   ",
"..........XXXXXXXXXXXXXXXXXXXXXXXXXXXXXXXXXXXXXXXXXXXXXXXXXXXXXXooooooXXXXXXooooooooooooooo   ",
"..........XXXXXXXXXXXXXXXXXXXXXXXXXXXXXXXXXXXXXXXXXXXXXXXXXXXXXXooooooXXXXXXooooooooooooooo   ",
".......XXXXXXXXXXXXXXXXXXXXXXXXXXXXXXXXXXXXXXXXXXXXX......XXXXXXXXXXXXXXXXXXoooooooooooooooXXX",
".......XXXXXXXXXXXXXXXXXXXXXXXXXXXXXXXXXXXXXXXXXXXXX......XXXXXXXXXXXXXXXXXXoooooooooooooooXXX",
".......XXXXXXXXXXXXXXXXXXXXXXXXXXXXXXXXXXXXXXXXXXXXX......XXXXXXXXXXXXXXXXXXoooooooooooooooXXX",
".......XXXXXXXXXXXXXXXXXXXXXXXXXXXXXXXXXXXXXXXXXX......XXXXXXXXXXXXXXXXXXoooooooooooooooXXXXXX",
".......XXXXXXXXXXXXXXXXXXXXXXXXXXXXXXXXXXXXXXXXXX......XXXXXXXXXXXXXXXXXXoooooooooooooooXXXXXX",
".......XXXXXXXXXXXXXXXXXXXXXXXXXXXXXXXXXXXXXXXXXX......XXXXXXXXXXXXXXXXXXoooooooooooooooXXXXXX",
"....XXXXXXXXXXXXXXXXXX.........XXXXXXXXXXXXXXX......XXXXXXXXXXXXXXXXXXooooooooooooooooooXXXXXX",
"....XXXXXXXXXXXXXXXXXX.........XXXXXXXXXXXXXXX......XXXXXXXXXXXXXXXXXXooooooooooooooooooXXXXXX",
"....XXXXXXXXXXXXXXXXXX.........XXXXXXXXXXXXXXX......XXXXXXXXXXXXXXXXXXooooooooooooooooooXXXXXX",
".XXXXXXXXXXXX.....................XXXXXXXXX.........XXXXXXXXXXXXXXXXXXooooooooooooooooooXXXXXX",
".XXXXXXXXXXXX.....................XXXXXXXXX.........XXXXXXXXXXXXXXXXXXooooooooooooooooooXXXXXX",
".XXXXXXXXXXXX.....................XXXXXXXXX.........XXXXXXXXXXXXXXXXXXooooooooooooooooooXXXXXX",
"..................................XXXXXX...............XXXXXXXXXXXXXXXXXXXXXooooooXXXXXXXXXXXX",
"..................................XXXXXX...............XXXXXXXXXXXXXXXXXXXXXooooooXXXXXXXXXXXX",
"..................................XXXXXX...............XXXXXXXXXXXXXXXXXXXXXooooooXXXXXXXXXXXX"
};
