/* XPM */
static char *japset0_3[] = {
/* columns rows colors chars-per-pixel */
"32 32 10 1 ",
"  c #36160A",
". c #3D2C11",
"X c #433119",
"o c #4D381C",
"O c #4D401F",
"+ c #5E4522",
"@ c #BA9961",
"# c #E5BD77",
"$ c #EBCB7A",
"% c #ECD093",
/* pixels */
"+oo.........................ooo+",
"o@@@@@@@@@@@@@@@@@@@@@@@@@@@@@@o",
"o@#############################o",
".@#############################o",
".ooooooooooooooooooooooooooooo..",
"................................",
".@@@@@@@@@@@@@@@@@@@@@@@@@@@@@@.",
".@#############################.",
".@#$#$#$#$#$#$#$#$#$#$#$#$#$#$#.",
".@$#$#$#$#$#$#$#$#$#$#$#$#$#$#$.",
".@#$#$#$#$#$#$#$#$#$#$#$#$#$#$#.",
".@$#$#$#$#$#$#$#$#$#$#$#$#$#$#$.",
".@$$$$$$$$$$$$$$$$$$$$$$$$$$$$$.",
".@$$#$$#$$#$$#$$#$$#$$#$$#$$#$$.",
".@$$$$$$$$$$$$$$$$$$$$$$$$$$$$$.",
".@$$$$$$$$$$$$$$$$$$$$$$$$$$$$$.",
".@$$$$$$$$$$$$$$$$$$$$$$$$$$$$$.",
".@$$$%$%$%$%$%$%$%$%$%$%$%$%$$$.",
".@$$%$%$%$%$%$%$%$%$%$%$%$%$%$$.",
".@$%%%%%%%%%%%%%%%%%%%%%%%%%%%$.",
"+o............................o+",
"o.oo+++++++++++++++++++++++++o.o",
".                              .",
". ............................ .",
". XoXoooXXoXoooXoooXXoXooOOoXO .",
". .XooOOooXOOoXXXoOoOOoXXooOo. .",
". XXXXXXXXooXXoooXooXXXooXX.XX .",
". .oOOOooOoXXooOOoXXoOOooOoOO. .",
". .XXXXoooOOoXXXXoXooo..XoXooo .",
". .XoOOoXXXoX.ooOOo.XXXoXXXXX. .",
". ..X..X...X..XXXX.XX..X...... .",
".++++++++++++++++++++++++++++++."
};
