/* XPM */
static char *pacarr__[] = {
/* columns rows colors chars-per-pixel */
"58 74 59 1 ",
"  c #22080A",
". c #2E0D0C",
"X c #36160A",
"o c #371A17",
"O c #2D350B",
"+ c #372C11",
"@ c #3D2C11",
"# c #38221F",
"$ c #3C3B15",
"% c #422A10",
"& c #522710",
"* c #4A3A13",
"= c #433119",
"- c #4D381C",
"; c #66390F",
": c #452226",
"> c #502922",
", c #5C3121",
"< c #5E352D",
"1 c #34471E",
"2 c #4E4119",
"3 c #4D401F",
"4 c #56451A",
"5 c #5F4E1D",
"6 c #445119",
"7 c #78441A",
"8 c #63521F",
"9 c #7F5F1B",
"0 c #5E4522",
"q c #685822",
"w c #70592B",
"e c #664839",
"r c #5B7229",
"t c #78652B",
"y c #7D722E",
"u c #595652",
"i c #736244",
"p c #7A6E58",
"a c #8F4C1F",
"s c #825734",
"d c #916A3B",
"f c #85755C",
"g c #9E804C",
"h c #A2884E",
"j c #948465",
"k c #9A8B6E",
"l c #BA9961",
"z c #A1957A",
"x c #C29A5E",
"c c #C5A260",
"v c #E5BD77",
"b c #EBCB7A",
"n c #A89C80",
"m c #BDB193",
"M c #ECD093",
"N c #C3C1A2",
"B c #C7C5A7",
"V c #D4C8AB",
"C c #F0DAAD",
/* pixels */
"o,.oooo,.oooo,.oooo,.oooo,.o<:: #:: <:: <:: <::: <:: <:: <",
"o,.o::o,.o::o,.o::o,.o::o,.o<:: #:: <:: <:: <::: <:: <:: <",
"o,.o::o,.o::o,.o::o,.o::o,.o<:: #:: <:: <:: <::: <:: <:: <",
"o,.o::o,.o::o,.o::o,.o::o,.o>:: #:: <:: <:: <::: <:: <:: <",
"o,.oooo,.oooo,.oooo,.oooo,.o>:: #:: <:: <:: <::: <:: <:: <",
"o,.o::o,.o::o,.o::o,.o::o,.o>:: #:: <:: <:: <::: <:: <:: <",
"o>.o::o>.o::o>.o::o>.o::o>.o>:: #:: <:: <:: <::: <:: <:: <",
"o:.o::o:.o::o:.o::o:.o::o:.o>:: #:: >:: >:: >::: >:: >:: >",
"<<eeeeeeeeeeeeeeeeeeeeeee<<><>><<eeeeeeeeeeeeeeeeeeeeeeeee",
"::::::::::::::::::::::::::::::::::::::::::::::::::::::::::",
"::::::::::::::::::::::::::::::::::::::::::::::::::::::::::",
"0000000000000000000000000000000---------------------------",
"@@@@@XXXXXXXXXXXXXXXXXX@@@@@@0-llllll@lllllll0@lllllll@lll",
"-----@0llllllllllllll@0@-----0-lbvbvb-lbvbvbv0@lbvbvbv@lbv",
"-000-@0lbvbvbvbvbvbvb@0@-000-0@lvbvbv@lvbvbvbw@lvbvbvb@lvb",
"00w00@0lvbvbvbvbvbvbv@0-00w000@lbvbvb-lbvbvbvw@lbvbvbv-lbv",
"0w0w0@0lbvbvbvbvbvbvb@0@0w0w00@lvbvbv-lvbvbvbw@lvbvbvb@lvb",
"00w00@0lvbvbvbvbvbbbv@0-00w000@lbvbvb-lbvbvbbt@lbvbvbb-lbv",
"wwwww@0lbvbvbvbvbvbvb@0wwwwww0@lvbvbb-lvbvbbvt@lvbvbbv-lvb",
"@@@@@@0lvbvbvbvbbbvbb@0@@@@@@0@lbvbbv0lbvbbvbt@lbvbbvb0lbv",
"lllll@0lbvbvbvbvbvbbb-0llllll0@lvbbvb-lvbbvbvt@lvbbvbv-lvb",
"gbxbv-0lvbvbvbbbvbvbb@0lvbvcv0@lbbvbb0lbbvbbbt@lbbvbbb0lbb",
"bgbvb@0lbvbvbvbvbbbbb-0lbgbxb0@lbvbvb0lbvbvbbt@lbvbvbb0lbv",
"vhxbv-0lvbvbbbvbvbbbb-0lvhxhv0@lvbvbb0lvbvbbbt@lvbvbbb0lvb",
"bvbvb-0lbvbbbbbbbbbbb-0lbvbxb0@lbvbbb0lbvbbbbt@lbvbbbb0lbv",
"0wwww-0lvbbbbvbbbbbbb-0wwww0w0@lbbbbb0lbbbbbbt@lbbbbbb0lbb",
"@@@@@-0lbbvbbbbbbbbbM-0@@@@@@0@lvbbbb0lvbbbbMt@lvbbbbM0lvb",
"lllll-0lbbbbbbbbbbbbb-0llllll0@lbbbbb-lbbbbbbt@lbbbbbb-lbb",
"vbxbv-0lvbbbbbbbbbbbb-0lgbvcv0@lbbbMb-lbbbMbMt@lbbbMbM-lbb",
"bghvb-0lbbbbbbbbbbMbb-0lbgcxb0@lbbMbM-lbbMbMbw@lbbMbMb-lbb",
"vcgcv-0lbbbbbbbMbMbbb-0lvhvcv0@lbMbCb-lbMbCbMw@lbMbCbM-lbM",
"bvcvb-0lbbbbbbMbMbMbb-0lbvhxb00lbbCbM@lbbCbMCw@lbbCbMC-lbb",
"dddds-0lbbbbbMbMbMbMb-0sdddds0-lbMbMC@lbMbMCM0@lbMbMCM@lbM",
"00000-0lbbbbMbMbMbCbM-00000000@lMbMCM@lMbMCMC0@lMbMCMC@lMb",
"------0lbbbbbMbMbMMCb-0------0@-@@@@@@@@@@@@@@@@@@@@@@@@@@",
"@@@@@-0lbbbbMbMbCMCMb-0@@@@@@0@@--000000000000000000000000",
"------0lbbbMbMbCMCMCb-0@-----0@XXXXXXXXXXXXXXXXXXXXXXXXXXX",
"-000--0lbbMbMbMMCMCbb-0@-000-0@X@@@@@@@@@@@@@@@@@@@@@@@@@@",
"0w0w0-0lbbbMbCbCMCMMb-0@0w0w00@X=-=---==-=---=---==-=--33-",
"00w00-0lbbMbMbMbMbMbM-0-00w000@X@=--33--=33-===-3-33-==--3",
"0www0-0lbMbMbbbbbbbMb-0-0www00@X@=-33-===-=@--33-@===-====",
"wwwwwwwwwwwwwwwwwwwwwwwwwwwwww@X@@=@@=@@@=@@====@==@@=@@@@",
"000000000000000000000000000000@000000000000000000000000000",
"77ssddddddddddddddddddsss7777:=Bzkzkjjj=Bzkzkjjjjjjk=Bzkzk",
":::::::::::::::::::::::::::::73zffffffp3zffffffffffp3zffff",
"jnnnnnnnnnnnnnnnnnnnnnnnnnnn:73kffffffp3kffffffffffp3kffff",
"jmmNmNmNmNmNmNmNmNmNmNmNmNmN:73zfpfpfpd3zfffpffpfpfd3zffpf",
"jmNmNmNmNmNmNmNmNmNmNmNmNmNm:73kdpfpdtd3kfdfpfpdpfdt3kpffp",
"jNmNmNmNmNmNmNmNmNmNmNmNmNmN:7-jtdddttt-jftdpdptddtt-jpddd",
"jNNNNNNNNNNNNNNNNNNNNNNNNNNV:7--3-33-3-=-3-33333333-=-3333",
"jNVNVNVNVNVNVNVNVNVNVNVNVNVN:7fi$iNzkjkji+4yq8q85k55i+Nczk",
"jVNVVVNVVVNVVVNVVVNVVVNVVVNV:7fp6Ncjfffff$y8854f44422$ckff",
"jVVVNVVVNVVVNVVVNVVVNVVVNVVV:7pi$zjfpfppi$q854424p*2i$$ffp",
"jVVVVVVVVVVVVVVVVVVVVVVVVVVV:7ii$kjffppii$8j442fp*p*u$3eup",
"jVVVVVVVVVVVVVVVVVVVVVVVVVVV:7$$3jffppipi$jf444pppipi$OO$O",
"jVVVVVVVVVVVVVVVVVVVVVVVVVVV:74$Offppipiu$$fff2pp*piu+$y9q",
"jVVVVVVVVVVVVVVVVVVVVVVVVVVV:72*$Offppiuu33$iffpiiiu3$rqkj",
"jVVVVVVVVVVVVVVVVVVVVVVVVVVV:7*p*23$1$555q82$iiuiuu33$4kjf",
"jVVVVVVVVVVVVVVVVVVVVVVVVVVV:7pipie3*9q8542*2$333eezkpeeff",
"&&****;;;;;;;;;;;;;;;;****&&:7iiie3*y9k54442i*i3cNzjffpi$f",
"7sssss7&s:7ssssss7&s:7sssss7:7uee3%5ck54fp*p*pieNzjffpii$$",
":&&&&&&&s::&&&&&&&&s::&&&&&&:7q854ef8jf4ffpipiuezjffpipu$y",
"$$$$$$$&s:$$$$$$$$&s:$$$$$$$:7444*epffpipii2iue3jffpipiey8",
"$777777&s:$7777777&s:$777777:7p*p**$$ppppppiu$O3$iifpiiek5",
"$a7a777&s:$a7a7a7a&s:$7a7a77:7p2i2i*OO$iii6$$kf$3$$piiu3j4",
"$a7a7a7&s:$a777777&s:$7a777a:7piiiuu5q8$OO$zkffpp$OO$$333$",
"$7777a7&s:$77a7a7a&s:$777a77:7iiuu5q8555OckkfpppiuOekzkkjj",
"$a77777&s:$777777a&s:$777a7a:7j5cq854444$kffpppiu$ecjfffff",
"$77a777&s:$a7a7777&s:$7a7a7a:7ck5f4pf2p2*epiiueee3Njffppip",
"$a7a7a7&s:$77a7a7a&s:$777777:7kjff2ppp*piu3eee*85$kffppipi",
"$777777&s:$a777a77&s:$777a7a:7$eii*fpipiuee*q85442e$piiiue",
"$a7a7a7&7:$a7a7a7a&7:$7a777a:7Nce$$$iiiu3i9854f44423$$e$ei",
"$a777a7&7:$a7a7a7a&7:$7a7a7a:7ckkjkpe$OOiyj54f4p2p2e3$izkj",
":::::::::::::::::::::::::::::7jppffpipiOckjf4fppp*ii3icjff"
};
