/* XPM */
static char *pacarr__2[] = {
/* columns rows colors chars-per-pixel */
"115 31 34 1 ",
"  c #36160A",
". c #3B2717",
"X c #3D2C11",
"o c #522710",
"O c #433119",
"+ c #4D381C",
"@ c #602F06",
"# c #652E07",
"$ c #693A17",
"% c #452226",
"& c #4D401F",
"* c #78441A",
"= c #5E4522",
"- c #694B2E",
"; c #70592B",
": c #78652B",
"> c #8F4C1F",
", c #87581E",
"< c #825734",
"1 c #916A3B",
"2 c #9E804C",
"3 c #A2884E",
"4 c #948465",
"5 c #BA9961",
"6 c #C29A5E",
"7 c #C5A260",
"8 c #E5BD77",
"9 c #EBCB7A",
"0 c #A89C80",
"q c #BDB193",
"w c #ECD093",
"e c #C3C1A2",
"r c #D4C8AB",
"t c #F0DAAD",
/* pixels */
",,,-@X5898989=5989898989999=58989899X;555555X=555555+=555555+=555555;;555555X=58989898999899+=555555;;XXXXXXX=58989",
"@@@-@X5989899+5898989899999+59898999X;589898+=589898X=589898X=589898;;589898+=59898989898999X=589898;;555555X=59898",
"$$$-@X5898989=598989999999w=58989899X;598989X=598989+=598989+=598989;;598989X=58989899989899+=598989;;529698+=58989",
"$*$-@X5989999=5898989999999=59899999X;589898+=589898+=589898+=589898;;589898+=59898989899999+=589898;;592989X=59898",
"$*$-@X589899w=5999999999w9w=58989w9wX;598989+=598989+=598989+=598989;;598989+=589899989899w9+=598989;;583698+=58989",
"$$$-@X59899w9=599899999w9tw=598999t9X;;=;;;;+=;;;;;;+=;;;;;;+=;;;;=;;;;=;;;;+=59899999999t9w+=;;;;=;;;598989+=59899",
"$*$-@X5899t9w=59899999w9tww=58999t9wX;      +=      +=      +=      ;;      +=58999989w9wwt9+=      ;;;=;;;;+=58999",
",,,-@X599t9wt=5899999w9twtw=5999t9twX;555555+=555555+=555555+=555555;;555555+=5998999w9twtww+=555555;;XXXXXX+=59989",
"@@@-@X59w9wtw+59999999wwwww+599w9wwwX;589898+=589898+=589898+=589898;;589898+=599999w9twtwt9+=589898;;555555+=59999",
"$$$-@XX+===+XXXX+========+XXX+====+XX;598989+=598989+=598989+=598989;;598989+=5899999wwtwt99+=598989;;589698+=58999",
"$*$-@X5555555X5555555555555X55555555X=589898+=589898+=589898+=589898;=589898+=599999t9twtww9+=589898;;592389+=59999",
"$*$-@X5888888X5888888888888X58888888X;598989+=598989+=598989+=598989;;598989+=59999w9w9w9w99+=598989;=587278+=59999",
"$$$-@=+XXXXXXXXXXXXXXXXXXXXXXXXXXXX+==<<<<<<+=<<<<<<+=<<<<<<+=<<<<<<;=<1111<+=<1<11111111<1<+=<1111<;;598789+=59999",
"$*$-@+X++=========================+X+=======+=======+=======+=======;=======+===============+=======;=<1111<+=59999",
",,,-@X                              X=+++++++=+++++++=+++++++=++++++;=+++++++=+++++++=+++++++=++++++;=======+=59999",
"@@@-@X XXXXXXXXXXXXXXXXXXXXXXXXXXXX X=XXXXXX+=XXXXXX+=XXXXXX+=XXXXXX;=XXXXXX+=XXXXXX+=XXXXXX+=XXXXXX;=+++++++=59999",
"$$$-@X O+O+++OO+O+++O+++OO+O++&&+O& X=X++++++=X++++++=X++++++=X+++++;=X++++++=X++++++=X++++++=X+++++;=XXXXXX+=59999",
"$*$-@X XO++&&++O&&+OOO+&+&&+OO++&+X X=X+===++=X+===++=X+===++=X+===+;=X+===++=X+===++=X+===++=X+===+;=X++++++=5999w",
"$*$-@X OOOOOOOO++OO+++O++OOO++OOXOO X=+==;==+=+==;==+=+==;==+=+==;====+==;==+=+==;==+=+==;==+=+==;====X+===++=599w9",
"$$$-@X X+&&&++&+OO++&&+OO+&&++&+&&X X=X=;=;=+=X=;=;=+=X=;=;=+=X=;=;=;=X=;=;=+=X=;=;=+=X=;=;=+=X=;=;=;=X=;=;=+=5999w",
"$*$-@X XOOOO+++&&+OOOO+O+++XXO+O+++ X=+==;==+=+==;==+=+==;==+=+==;====+==;==+=+==;==+=+==;==+=+==;====+==;==+=599w9",
"$$$-@X XO+&&+OOO+OX++&&+XOOO+OOOOOX X=+=;;;=+=+=;;;=+=+=;;;=+=+=;;;===+=;;;=+=+=;;;=+=+=;;;=+=+=;;;===+=;;;=+=59w9w",
"---.@X XXOXXOXXXOXXOOOOXOOXXOXXXXXX X;;:::::;;;:::::;;;:::::;;;:::::;;;:::::;;;:::::;;;:::::;;;:::::;;;;;;;;;;;;;;;",
"@@@$.X==============================X==============================================================================",
"======++++++++++++++++++++++++++++++==++XXXXXXXXXXXXXXXXXXXXXXXXX+++=@@$@$$$*$**************$*$$$@$@@%***<<11111111",
"    ++555555X5555555=X5555555+555555++555555555555555555555555555555+-..............................@*%%%%%%%%%%%%%",
"0000++598989+5989898=X5989898+598989++588888888888888888888888888888+-#..oooo@oo....o.oooo@oo..oooo-@*%400000000000",
"rrrr+X589898=5898989;X5898989=589898+X588888888888888888888888888888+-#.$$$$$@@o.$$$$$*$$$@@o.$$$$$-@*%4qqeqeqeqeqe",
"rrrr+X+++++==X++++++;X++++++==X+++++XX+++++++++++++++++++++++++++++XX-#o$*$$*@*@.*$$$$*$$$@*#o$*$$*-@*%4qeqeqeqeqeq",
"rrrr+X589898=5898989;X5898989=589898XXXXXXXXXXXXXXXXXXXXXXXXXXXXXXXXX-#o$*$*$@>@.*$$$$*$$$@>#o$*$*$-@*%4eqeqeqeqeqe",
"rrrr+X598989+5989899:X5989899+598989XX555555555555555555555555555555X-#o$$***@>@o*$$$$$$$$@>#o$$***-@*%4eeeeeeeeeee"
};
