/* XPM */
static char *pacarr__toupetit[] = {
/* columns rows colors chars-per-pixel */
"4 3 4 1 ",
"  c #85755C",
". c #9A8B6E",
"X c #A1957A",
"o c #C7C5A7",
/* pixels */
"oX.X",
"X   ",
".   "
};
