/* XPM */
static char *japset0_1[] = {
/* columns rows colors chars-per-pixel */
"32 32 13 1 ",
"  c #36160A",
". c #3D2C11",
"X c #433119",
"o c #4D381C",
"O c #4D401F",
"+ c #5E4522",
"@ c #70592B",
"# c #78652B",
"$ c #BA9961",
"% c #E5BD77",
"& c #EBCB7A",
"* c #ECD093",
"= c #F0DAAD",
/* pixels */
"+oooooooooooooooooooooooooooooo+",
"o$$$$$$.$$$$$$$+.$$$$$$$o$$$$$$o",
"o$&%&%&o$&%&%&%+.$&%&%&%o$&%&%&o",
".$%&%&%+$%&%&%&@.$%&%&%&+$%&%&%o",
".ooooo++.oooooo@.oooooo++.ooooo.",
".$%&%&%+$%&%&%&@.$%&%&%&+$%&%&%.",
".$&%&%&o$&%&%&&#.$&%&%&&o$&%&%&.",
".$%&%&&o$%&%&&%#.$%&%&&%o$%&%&&.",
".$&%&&%+$&%&&%&#.$&%&&%&+$&%&&%.",
".$%&&%&o$%&&%&%#.$%&&%&%o$%&&%&.",
".$&&%&&+$&&%&&&#.$&&%&&&+$&&%&&.",
".$&%&%&+$&%&%&&#.$&%&%&&+$&%&%&.",
".$%&%&&+$%&%&&&#.$%&%&&&+$%&%&&.",
".$&%&&&+$&%&&&&#.$&%&&&&+$&%&&&.",
".$&&&&&+$&&&&&&#.$&&&&&&+$&&&&&.",
".$%&&&&+$%&&&&*#.$%&&&&*+$%&&&&.",
".$&&&&&o$&&&&&&#.$&&&&&&o$&&&&&.",
".$&&&*&o$&&&*&*#.$&&&*&*o$&&&*&.",
".$&&*&*o$&&*&*&@.$&&*&*&o$&&*&*.",
".$&*&=&o$&*&=&*@.$&*&=&*o$&*&=&.",
"+$&&=&*.$&&=&*=@.$&&=&*=o$&&=&*.",
"o$&*&*=.$&*&*=*+.$&*&*=*.$&*&*=.",
".$*&*=*.$*&*=*=+.$*&*=*=.$*&*=*.",
".o............................o+",
"..oo+++++++++++++++++++++++++o.o",
".                              .",
". ............................ .",
". XoXoooXXoXoooXoooXXoXooOOoXO .",
". .XooOOooXOOoXXXoOoOOoXXooOo. .",
". .XoOOoXXXoX.ooOOo.XXXoXXXXX. .",
". ..X..X...X..XXXX.XX..X...... .",
".++++++++++++++++++++++++++++++."
};
